<?xml version="1.0" encoding="UTF-8"?>
<!DOCTYPE svg PUBLIC "-//W3C//DTD SVG 1.1//EN" "http://www.w3.org/Graphics/SVG/1.1/DTD/svg11.dtd">
<svg xmlns="http://www.w3.org/2000/svg" version="1.1" width="288px" height="271px" style="shape-rendering:geometricPrecision; text-rendering:geometricPrecision; image-rendering:optimizeQuality; fill-rule:evenodd; clip-rule:evenodd" xmlns:xlink="http://www.w3.org/1999/xlink">
<g><path style="opacity:1" fill="#fefefe" d="M -0.5,-0.5 C 95.5,-0.5 191.5,-0.5 287.5,-0.5C 287.5,89.8333 287.5,180.167 287.5,270.5C 250.833,270.5 214.167,270.5 177.5,270.5C 178.848,269.399 180.348,268.399 182,267.5C 183.333,267.5 184.667,267.5 186,267.5C 188.789,265.55 192.289,264.05 196.5,263C 203.116,258.819 209.616,255.319 216,252.5C 216.483,251.552 216.649,250.552 216.5,249.5C 219.296,247.15 222.296,245.65 225.5,245C 225.167,244.667 224.833,244.333 224.5,244C 229.369,240.463 233.536,236.963 237,233.5C 240.62,228.211 244.62,223.211 249,218.5C 252.066,212.438 255.066,206.772 258,201.5C 260.093,195.455 262.593,189.621 265.5,184C 265.924,180.697 265.924,177.697 265.5,175C 267.384,173.011 267.717,171.011 266.5,169C 267.5,165.333 268.5,161.667 269.5,158C 268.773,152.76 268.773,147.427 269.5,142C 268.74,140.559 268.074,139.059 267.5,137.5C 267.367,134.568 267.367,131.568 267.5,128.5C 265.818,125.355 265.151,122.188 265.5,119C 261.824,111.792 258.991,104.625 257,97.5C 255.008,94.489 252.842,91.6557 250.5,89C 251.412,86.5118 250.412,84.8452 247.5,84C 247.957,83.586 248.291,83.086 248.5,82.5C 247.335,81.4164 246.002,80.5831 244.5,80C 244.833,79.6667 245.167,79.3333 245.5,79C 235.066,65.2365 222.4,53.9032 207.5,45C 205.975,43.9914 204.308,43.4914 202.5,43.5C 163.711,23.029 125.378,23.6957 87.5,45.5C 84.5755,45.4598 81.9088,46.2932 79.5,48C 51.5094,68.6433 33.8427,94.6433 26.5,126C 26.8333,126.333 27.1667,126.667 27.5,127C 25.9534,129.773 24.9534,132.773 24.5,136C 25.0509,137.398 25.3842,138.732 25.5,140C 24.8333,140.667 24.1667,141.333 23.5,142C 24.1667,146 24.8333,150 25.5,154C 23.5279,157.603 23.5279,161.103 25.5,164.5C 23.913,166.446 24.2464,167.946 26.5,169C 26.5385,170.245 26.2052,171.578 25.5,173C 28.0533,181.669 30.8866,190.502 34,199.5C 45.3504,223.163 61.8504,241.996 83.5,256C 91.3137,259.799 99.147,263.632 107,267.5C 108.395,266.185 109.395,266.519 110,268.5C 112,268.5 114,268.5 116,268.5C 116.717,269.044 117.217,269.711 117.5,270.5C 78.1667,270.5 38.8333,270.5 -0.5,270.5C -0.5,180.167 -0.5,89.8333 -0.5,-0.5 Z"/></g>
<g><path style="opacity:1" fill="#282460" d="M 202.5,43.5 C 218.521,53.1882 231.188,66.1882 240.5,82.5C 248.788,96.3645 253.455,111.365 254.5,127.5C 254.5,135.5 254.5,143.5 254.5,151.5C 251.998,165.007 247.664,178.007 241.5,190.5C 236.421,197.641 231.087,204.641 225.5,211.5C 190.478,244.674 150.145,253.174 104.5,237C 91.9277,231.241 80.5944,223.741 70.5,214.5C 63.7648,207.338 57.7648,199.672 52.5,191.5C 45.5063,177.834 40.8396,163.501 38.5,148.5C 38.5,141.833 38.5,135.167 38.5,128.5C 39.8928,111.324 44.8928,95.3243 53.5,80.5C 62.7915,66.8748 74.1248,55.2081 87.5,45.5C 125.378,23.6957 163.711,23.029 202.5,43.5 Z"/></g>
<g><path style="opacity:1" fill="#f5f5f5" d="M 202.5,43.5 C 204.308,43.4914 205.975,43.9914 207.5,45C 222.4,53.9032 235.066,65.2365 245.5,79C 245.167,79.3333 244.833,79.6667 244.5,80C 246.002,80.5831 247.335,81.4164 248.5,82.5C 248.291,83.086 247.957,83.586 247.5,84C 250.412,84.8452 251.412,86.5118 250.5,89C 252.842,91.6557 255.008,94.489 257,97.5C 258.991,104.625 261.824,111.792 265.5,119C 265.151,122.188 265.818,125.355 267.5,128.5C 267.367,131.568 267.367,134.568 267.5,137.5C 268.074,139.059 268.74,140.559 269.5,142C 268.773,147.427 268.773,152.76 269.5,158C 268.5,161.667 267.5,165.333 266.5,169C 267.717,171.011 267.384,173.011 265.5,175C 265.924,177.697 265.924,180.697 265.5,184C 262.593,189.621 260.093,195.455 258,201.5C 255.066,206.772 252.066,212.438 249,218.5C 244.62,223.211 240.62,228.211 237,233.5C 233.536,236.963 229.369,240.463 224.5,244C 224.833,244.333 225.167,244.667 225.5,245C 222.296,245.65 219.296,247.15 216.5,249.5C 216.649,250.552 216.483,251.552 216,252.5C 209.616,255.319 203.116,258.819 196.5,263C 192.289,264.05 188.789,265.55 186,267.5C 184.667,267.5 183.333,267.5 182,267.5C 180.348,268.399 178.848,269.399 177.5,270.5C 157.5,270.5 137.5,270.5 117.5,270.5C 117.217,269.711 116.717,269.044 116,268.5C 114,268.5 112,268.5 110,268.5C 109.395,266.519 108.395,266.185 107,267.5C 99.147,263.632 91.3137,259.799 83.5,256C 61.8504,241.996 45.3504,223.163 34,199.5C 30.8866,190.502 28.0533,181.669 25.5,173C 26.2052,171.578 26.5385,170.245 26.5,169C 24.2464,167.946 23.913,166.446 25.5,164.5C 23.5279,161.103 23.5279,157.603 25.5,154C 24.8333,150 24.1667,146 23.5,142C 24.1667,141.333 24.8333,140.667 25.5,140C 25.3842,138.732 25.0509,137.398 24.5,136C 24.9534,132.773 25.9534,129.773 27.5,127C 27.1667,126.667 26.8333,126.333 26.5,126C 33.8427,94.6433 51.5094,68.6433 79.5,48C 81.9088,46.2932 84.5755,45.4598 87.5,45.5C 74.1248,55.2081 62.7915,66.8748 53.5,80.5C 43.3158,91.8717 36.6491,104.872 33.5,119.5C 31.6332,120.797 31.2998,122.297 32.5,124C 30.7838,128.921 29.4505,133.921 28.5,139C 26.1887,190.023 47.5221,229.023 92.5,256C 130.802,274.642 169.135,273.308 207.5,252C 250.73,222.502 269.396,182.169 263.5,131C 261.46,123.809 259.294,116.642 257,109.5C 252.776,100.308 248.276,91.3078 243.5,82.5C 242.5,82.5 241.5,82.5 240.5,82.5C 231.188,66.1882 218.521,53.1882 202.5,43.5 Z"/></g>
<g><path style="opacity:1" fill="#eeeeee" d="M 53.5,80.5 C 44.8928,95.3243 39.8928,111.324 38.5,128.5C 29.8292,174.556 44.1625,212.389 81.5,242C 120.381,266.894 160.714,268.894 202.5,248C 245.084,219.549 262.918,180.049 256,129.5C 255.722,128.584 255.222,127.918 254.5,127.5C 253.455,111.365 248.788,96.3645 240.5,82.5C 241.5,82.5 242.5,82.5 243.5,82.5C 248.276,91.3078 252.776,100.308 257,109.5C 259.294,116.642 261.46,123.809 263.5,131C 269.396,182.169 250.73,222.502 207.5,252C 169.135,273.308 130.802,274.642 92.5,256C 47.5221,229.023 26.1887,190.023 28.5,139C 29.4505,133.921 30.7838,128.921 32.5,124C 31.2998,122.297 31.6332,120.797 33.5,119.5C 36.6491,104.872 43.3158,91.8717 53.5,80.5 Z"/></g>
<g><path style="opacity:1" fill="#f7f6f9" d="M 142.5,176.5 C 142.833,154.49 142.5,132.49 141.5,110.5C 140.893,110.624 140.56,110.957 140.5,111.5C 134.046,119.793 127.379,127.959 120.5,136C 117.647,136.659 115.98,135.492 115.5,132.5C 116.091,130.734 116.924,129.067 118,127.5C 125.809,117.39 133.976,107.556 142.5,98C 146.07,97.1965 149.237,98.0298 152,100.5C 160.409,110.987 168.576,121.653 176.5,132.5C 175.496,135.499 173.496,136.666 170.5,136C 163.787,127.409 156.953,118.909 150,110.5C 149.667,132.5 149.333,154.5 149,176.5C 146.707,179.134 144.54,179.134 142.5,176.5 Z"/></g>
<g><path style="opacity:1" fill="#5e5b88" d="M 140.5,111.5 C 140.56,110.957 140.893,110.624 141.5,110.5C 142.5,132.49 142.833,154.49 142.5,176.5C 141.833,154.833 141.167,133.167 140.5,111.5 Z"/></g>
<g><path style="opacity:1" fill="#e1e1e2" d="M 254.5,127.5 C 255.222,127.918 255.722,128.584 256,129.5C 262.918,180.049 245.084,219.549 202.5,248C 160.714,268.894 120.381,266.894 81.5,242C 44.1625,212.389 29.8292,174.556 38.5,128.5C 38.5,135.167 38.5,141.833 38.5,148.5C 39.4706,199.382 63.8039,234.548 111.5,254C 166.581,268.717 210.247,251.717 242.5,203C 242.167,202.667 241.833,202.333 241.5,202C 245.009,197.686 247.009,193.019 247.5,188C 250.886,182.81 252.553,177.31 252.5,171.5C 253.965,166.062 254.965,160.562 255.5,155C 254.663,153.989 254.33,152.822 254.5,151.5C 254.5,143.5 254.5,135.5 254.5,127.5 Z"/></g>
<g><path style="opacity:1" fill="#d7d7d8" d="M 38.5,148.5 C 40.8396,163.501 45.5063,177.834 52.5,191.5C 62.4273,215.931 79.4273,233.764 103.5,245C 153.42,264.1 195.753,252.933 230.5,211.5C 234.972,204.888 238.639,197.888 241.5,190.5C 247.664,178.007 251.998,165.007 254.5,151.5C 254.33,152.822 254.663,153.989 255.5,155C 254.965,160.562 253.965,166.062 252.5,171.5C 252.553,177.31 250.886,182.81 247.5,188C 247.009,193.019 245.009,197.686 241.5,202C 241.833,202.333 242.167,202.667 242.5,203C 210.247,251.717 166.581,268.717 111.5,254C 63.8039,234.548 39.4706,199.382 38.5,148.5 Z"/></g>
<g><path style="opacity:1" fill="#cfcfd0" d="M 241.5,190.5 C 238.639,197.888 234.972,204.888 230.5,211.5C 195.753,252.933 153.42,264.1 103.5,245C 79.4273,233.764 62.4273,215.931 52.5,191.5C 57.7648,199.672 63.7648,207.338 70.5,214.5C 70.7086,215.922 71.2086,217.255 72,218.5C 108.892,254.467 150.392,260.967 196.5,238C 206.908,231.424 216.241,223.591 224.5,214.5C 225.127,213.583 225.461,212.583 225.5,211.5C 231.087,204.641 236.421,197.641 241.5,190.5 Z"/></g>
<g><path style="opacity:1" fill="#c6c6c8" d="M 225.5,211.5 C 225.461,212.583 225.127,213.583 224.5,214.5C 216.241,223.591 206.908,231.424 196.5,238C 150.392,260.967 108.892,254.467 72,218.5C 71.2086,217.255 70.7086,215.922 70.5,214.5C 80.5944,223.741 91.9277,231.241 104.5,237C 150.145,253.174 190.478,244.674 225.5,211.5 Z"/></g>
</svg>
