<?xml version="1.0" encoding="UTF-8"?>
<!DOCTYPE svg PUBLIC "-//W3C//DTD SVG 1.1//EN" "http://www.w3.org/Graphics/SVG/1.1/DTD/svg11.dtd">
<svg xmlns="http://www.w3.org/2000/svg" version="1.1" width="432px" height="85px" style="shape-rendering:geometricPrecision; text-rendering:geometricPrecision; image-rendering:optimizeQuality; fill-rule:evenodd; clip-rule:evenodd" xmlns:xlink="http://www.w3.org/1999/xlink">
<g><path style="opacity:0.074" fill="#f6f7f8" d="M 97.5,51.5 C 105.824,41.6023 105.491,32.1023 96.5,23C 92.4791,20.6597 88.1457,19.3264 83.5,19C 75.1733,18.5003 66.84,18.3336 58.5,18.5C 57.5166,22.2984 57.1832,26.2984 57.5,30.5C 56.5151,26.3656 56.1818,22.0323 56.5,17.5C 67.1719,17.3335 77.8385,17.5002 88.5,18C 104.032,23.244 108.532,33.4107 102,48.5C 100.871,50.1412 99.371,51.1412 97.5,51.5 Z"/></g>
<g><path style="opacity:0.156" fill="#f0f2f4" d="M 140.5,70.5 C 129.88,73.2164 120.713,70.5498 113,62.5C 110.492,57.2964 108.992,51.7964 108.5,46C 109.461,36.5408 109.795,27.0408 109.5,17.5C 115.167,17.5 120.833,17.5 126.5,17.5C 126.334,27.5056 126.5,37.5056 127,47.5C 127.986,49.7778 128.82,52.1111 129.5,54.5C 135.233,58.535 139.4,57.2017 142,50.5C 142.5,39.505 142.667,28.505 142.5,17.5C 148.425,17.1918 154.259,17.5251 160,18.5C 160.667,30.5 160.667,42.5 160,54.5C 156.955,64.0448 150.455,69.3781 140.5,70.5 Z"/></g>
<g><path style="opacity:0.107" fill="#fbfbfc" d="M 236.5,18.5 C 231.5,18.5 226.5,18.5 221.5,18.5C 221.17,25.5316 221.503,32.5316 222.5,39.5C 223.107,39.3764 223.44,39.0431 223.5,38.5C 226.5,34.8333 229.833,31.5 233.5,28.5C 230.348,32.4968 227.348,36.6634 224.5,41C 222.866,41.4935 221.199,41.6602 219.5,41.5C 220.055,37.0029 219.389,32.8362 217.5,29C 219.205,25.832 220.038,22.332 220,18.5C 225.599,17.1752 231.099,17.1752 236.5,18.5 Z"/></g>
<g><path style="opacity:0.072" fill="#f7f9fb" d="M 290.5,69.5 C 278.751,70.0475 266.751,70.2142 254.5,70C 250.018,64.684 245.352,59.5173 240.5,54.5C 239.201,55.09 238.368,56.09 238,57.5C 237.408,60.6944 237.574,63.8611 238.5,67C 238.316,68.3756 237.649,69.2089 236.5,69.5C 236.5,65.1667 236.5,60.8333 236.5,56.5C 237.812,54.5212 239.479,52.8545 241.5,51.5C 246.357,57.189 251.023,63.0224 255.5,69C 261.167,69.6667 266.833,69.6667 272.5,69C 269.924,65.9372 267.591,62.7705 265.5,59.5C 267.778,60.7733 269.778,62.44 271.5,64.5C 272.5,64.1667 273.167,63.5 273.5,62.5C 274.193,53.8767 273.193,45.3767 270.5,37C 273.42,32.6507 274.253,27.8174 273,22.5C 272.282,21.5494 271.449,21.3828 270.5,22C 266.61,25.769 262.943,29.769 259.5,34C 258.906,34.4643 258.239,34.631 257.5,34.5C 261.59,28.9054 266.256,23.7387 271.5,19C 266.167,18.3333 260.833,18.3333 255.5,19C 244.295,30.7031 233.295,42.5365 222.5,54.5C 221.513,59.3054 221.179,64.3054 221.5,69.5C 220.188,67.2568 219.522,64.5902 219.5,61.5C 219.833,58.8333 220.167,56.1667 220.5,53.5C 229.149,43.6835 237.982,34.0169 247,24.5C 249.205,21.9598 251.705,19.7932 254.5,18C 267.076,17.1786 279.576,17.3452 292,18.5C 292.453,34.9677 292.62,51.4677 292.5,68C 292.164,69.0299 291.497,69.5299 290.5,69.5 Z M 265.5,59.5 C 264.59,55.9349 262.59,53.2683 259.5,51.5C 259.715,49.8212 259.048,48.8212 257.5,48.5C 257.446,46.368 256.446,45.0347 254.5,44.5C 254.322,43.3052 253.989,42.1385 253.5,41C 255.431,39.2282 256.765,37.0615 257.5,34.5C 258.239,34.631 258.906,34.4643 259.5,34C 262.943,29.769 266.61,25.769 270.5,22C 271.449,21.3828 272.282,21.5494 273,22.5C 274.253,27.8174 273.42,32.6507 270.5,37C 273.193,45.3767 274.193,53.8767 273.5,62.5C 273.167,63.5 272.5,64.1667 271.5,64.5C 269.778,62.44 267.778,60.7733 265.5,59.5 Z"/></g>
<g><path style="opacity:0.241" fill="#f4f8fb" d="M 315.5,18.5 C 315.5,28.1667 315.5,37.8333 315.5,47.5C 314.506,38.0144 314.173,28.3478 314.5,18.5C 309.833,18.5 305.167,18.5 300.5,18.5C 300.333,29.8382 300.5,41.1716 301,52.5C 303.101,61.758 308.601,67.758 317.5,70.5C 304.649,68.8148 297.816,61.4815 297,48.5C 296.168,38.4834 296.334,28.4834 297.5,18.5C 303.629,17.1907 309.629,17.1907 315.5,18.5 Z"/></g>
<g><path style="opacity:0.185" fill="#fafbfd" d="M 370.5,18.5 C 366.445,18.1758 362.445,18.5091 358.5,19.5C 365.807,34.7846 374.14,49.4512 383.5,63.5C 387.866,65.4171 391.2,64.4171 393.5,60.5C 393.703,62.3904 393.037,63.8904 391.5,65C 385.622,66.6532 380.788,65.1532 377,60.5C 377.311,59.0654 377.145,57.7321 376.5,56.5C 374.772,54.7745 372.772,53.4411 370.5,52.5C 369.9,48.5317 368.567,44.865 366.5,41.5C 364.833,40.1667 363.167,40.1667 361.5,41.5C 365.747,48.3234 369.747,55.3234 373.5,62.5C 372.366,64.5376 372.366,66.5376 373.5,68.5C 373.043,69.2975 372.376,69.6309 371.5,69.5C 366.296,70.8061 360.963,70.8061 355.5,69.5C 352.835,60.8245 352.835,52.1579 355.5,43.5C 353.833,43.5 352.167,43.5 350.5,43.5C 350.785,46.8291 350.118,49.8291 348.5,52.5C 348.5,41.1667 348.5,29.8333 348.5,18.5C 343.833,18.5 339.167,18.5 334.5,18.5C 334.666,28.5056 334.5,38.5056 334,48.5C 332.783,56.3891 328.283,59.5558 320.5,58C 316.827,55.4869 315.161,51.9869 315.5,47.5C 315.5,37.8333 315.5,28.1667 315.5,18.5C 316.239,18.369 316.906,18.5357 317.5,19C 316.348,29.4231 316.181,39.9231 317,50.5C 320.261,58.1029 323.927,58.1029 328,50.5C 328.333,44.1667 328.667,37.8333 329,31.5C 329.264,27.0445 330.098,22.7111 331.5,18.5C 344.642,18.1595 357.642,18.1595 370.5,18.5 Z M 350.5,20.5 C 351.675,20.281 352.675,20.6143 353.5,21.5C 355.909,26.3292 358.243,31.1625 360.5,36C 357.146,36.4552 353.813,36.9552 350.5,37.5C 349.312,31.8186 349.312,26.152 350.5,20.5 Z"/></g>
<g><path style="opacity:0.257" fill="#fafbfd" d="M 414.5,23.5 C 414.751,21.8297 415.418,20.3297 416.5,19C 412.459,18.1735 408.459,18.3401 404.5,19.5C 398.833,28.8333 393.167,38.1667 387.5,47.5C 385.376,44.7206 383.709,41.7206 382.5,38.5C 383.735,38.7214 384.735,39.3881 385.5,40.5C 388.322,38.1626 390.155,35.1626 391,31.5C 394.55,27.6174 397.717,23.4507 400.5,19C 406.044,17.5962 411.71,17.0962 417.5,17.5C 417.539,20.089 416.539,22.089 414.5,23.5 Z"/></g>
<g><path style="opacity:0.983" fill="#64809e" d="M 209.5,21.5 C 211.604,23.0987 213.604,24.932 215.5,27C 212.938,30.0652 209.938,32.5652 206.5,34.5C 201.579,30.3526 195.913,28.8526 189.5,30C 188.944,30.3826 188.611,30.8826 188.5,31.5C 181.197,34.7887 178.697,40.4554 181,48.5C 184.889,58.0201 191.723,60.8534 201.5,57C 202.725,55.437 204.225,54.2703 206,53.5C 209.257,54.9273 212.09,56.9273 214.5,59.5C 214.611,60.1174 214.944,60.6174 215.5,61C 213.959,62.3712 212.625,63.8712 211.5,65.5C 209.421,67.873 206.754,69.2064 203.5,69.5C 198.507,69.9157 193.507,70.2491 188.5,70.5C 186.343,69.5933 184.01,68.9267 181.5,68.5C 180.508,68.6716 179.842,68.3382 179.5,67.5C 163.395,55.27 161.395,41.1033 173.5,25C 184.756,16.5078 196.756,15.3412 209.5,21.5 Z"/></g>
<g><path style="opacity:0.038" fill="#fefffe" d="M 236.5,18.5 C 237.586,18.62 238.253,19.2867 238.5,20.5C 238.378,23.126 237.378,25.126 235.5,26.5C 235.5,26.1667 235.5,25.8333 235.5,25.5C 236.468,23.3926 236.802,21.0593 236.5,18.5 Z"/></g>
<g><path style="opacity:0.978" fill="#474b54" d="M 52.5,29.5 C 47.1667,29.5 41.8333,29.5 36.5,29.5C 36.5,42.5 36.5,55.5 36.5,68.5C 32.1667,68.5 27.8333,68.5 23.5,68.5C 23.8287,55.6557 23.4954,42.989 22.5,30.5C 17.6946,29.5128 12.6946,29.1795 7.5,29.5C 7.5,25.8333 7.5,22.1667 7.5,18.5C 22.5,18.5 37.5,18.5 52.5,18.5C 52.5,22.1667 52.5,25.8333 52.5,29.5 Z"/></g>
<g><path style="opacity:0.982" fill="#535f6f" d="M 58.5,18.5 C 66.84,18.3336 75.1733,18.5003 83.5,19C 88.1457,19.3264 92.4791,20.6597 96.5,23C 105.491,32.1023 105.824,41.6023 97.5,51.5C 94.9236,51.7218 94.0902,53.0551 95,55.5C 98.3879,60.0477 101.555,64.7144 104.5,69.5C 99.1667,70.8333 93.8333,70.8333 88.5,69.5C 86.0952,65.0274 83.4285,60.694 80.5,56.5C 77.7131,55.5233 74.7131,55.19 71.5,55.5C 71.5,60.1667 71.5,64.8333 71.5,69.5C 67.1667,69.5 62.8333,69.5 58.5,69.5C 58.5,61.5 58.5,53.5 58.5,45.5C 66.3516,45.8254 74.0182,45.492 81.5,44.5C 88.1045,43.666 90.2711,39.9994 88,33.5C 86.9085,31.8834 85.4085,30.8834 83.5,30.5C 75.3501,29.5073 67.0168,29.1739 58.5,29.5C 58.5,25.8333 58.5,22.1667 58.5,18.5 Z"/></g>
<g><path style="opacity:0.978" fill="#5a6d85" d="M 140.5,70.5 C 130.26,72.1561 121.76,69.1561 115,61.5C 113.25,58.7536 112.25,55.7536 112,52.5C 111.5,41.1716 111.333,29.8382 111.5,18.5C 116.167,18.5 120.833,18.5 125.5,18.5C 125.333,29.505 125.5,40.505 126,51.5C 128.969,58.0475 133.803,59.8808 140.5,57C 141.787,55.5905 142.954,54.0905 144,52.5C 144.5,41.1716 144.667,29.8382 144.5,18.5C 149.167,18.5 153.833,18.5 158.5,18.5C 158.901,31.5521 158.401,44.5521 157,57.5C 153.602,64.6029 148.102,68.9362 140.5,70.5 Z"/></g>
<g><path style="opacity:0.957" fill="#698eb4" d="M 235.5,25.5 C 235.5,25.8333 235.5,26.1667 235.5,26.5C 234.5,26.8333 233.833,27.5 233.5,28.5C 229.833,31.5 226.5,34.8333 223.5,38.5C 222.51,32.3554 222.177,26.0221 222.5,19.5C 226.833,19.5 231.167,19.5 235.5,19.5C 235.5,21.5 235.5,23.5 235.5,25.5 Z"/></g>
<g><path style="opacity:0.971" fill="#6a8eb5" d="M 257.5,34.5 C 254.985,36.1816 252.985,38.3483 251.5,41C 251.707,42.9497 252.707,44.1164 254.5,44.5C 254.554,46.632 255.554,47.9653 257.5,48.5C 257.427,50.0269 258.094,51.0269 259.5,51.5C 261.025,54.563 263.025,57.2297 265.5,59.5C 267.591,62.7705 269.924,65.9372 272.5,69C 266.833,69.6667 261.167,69.6667 255.5,69C 251.023,63.0224 246.357,57.189 241.5,51.5C 239.479,52.8545 237.812,54.5212 236.5,56.5C 235.517,60.2984 235.183,64.2984 235.5,68.5C 231.167,68.5 226.833,68.5 222.5,68.5C 222.5,63.8333 222.5,59.1667 222.5,54.5C 233.295,42.5365 244.295,30.7031 255.5,19C 260.833,18.3333 266.167,18.3333 271.5,19C 266.256,23.7387 261.59,28.9054 257.5,34.5 Z"/></g>
<g><path style="opacity:0.945" fill="#709ecc" d="M 290.5,69.5 C 285.833,69.5 281.167,69.5 276.5,69.5C 276.5,52.5 276.5,35.5 276.5,18.5C 281.167,18.5 285.833,18.5 290.5,18.5C 290.5,35.5 290.5,52.5 290.5,69.5 Z"/></g>
<g><path style="opacity:0.958" fill="#7db0e4" d="M 315.5,47.5 C 315.161,51.9869 316.827,55.4869 320.5,58C 328.283,59.5558 332.783,56.3891 334,48.5C 334.5,38.5056 334.666,28.5056 334.5,18.5C 339.167,18.5 343.833,18.5 348.5,18.5C 348.5,29.8333 348.5,41.1667 348.5,52.5C 346.903,54.8478 345.903,57.5145 345.5,60.5C 344.026,61.4363 343.026,62.7697 342.5,64.5C 342.5,65.1667 342.167,65.5 341.5,65.5C 339.973,65.427 338.973,66.0937 338.5,67.5C 335.557,67.9802 332.89,68.9802 330.5,70.5C 326.066,71.7943 321.733,71.7943 317.5,70.5C 308.601,67.758 303.101,61.758 301,52.5C 300.5,41.1716 300.333,29.8382 300.5,18.5C 305.167,18.5 309.833,18.5 314.5,18.5C 314.173,28.3478 314.506,38.0144 315.5,47.5 Z"/></g>
<g><path style="opacity:0.913" fill="#86c1fc" d="M 370.5,18.5 C 371.079,21.3311 372.412,23.6644 374.5,25.5C 374.75,27.674 375.75,29.3406 377.5,30.5C 378.383,33.7043 380.05,36.3709 382.5,38.5C 383.709,41.7206 385.376,44.7206 387.5,47.5C 393.167,38.1667 398.833,28.8333 404.5,19.5C 408.459,18.3401 412.459,18.1735 416.5,19C 415.418,20.3297 414.751,21.8297 414.5,23.5C 412.736,27.3663 410.736,31.033 408.5,34.5C 407.326,35.5137 406.66,36.847 406.5,38.5C 404.44,41.2402 402.774,44.2402 401.5,47.5C 399.75,48.6594 398.75,50.326 398.5,52.5C 396.75,53.6594 395.75,55.326 395.5,57.5C 394.094,57.9731 393.427,58.9731 393.5,60.5C 391.2,64.4171 387.866,65.4171 383.5,63.5C 374.14,49.4512 365.807,34.7846 358.5,19.5C 362.445,18.5091 366.445,18.1758 370.5,18.5 Z"/></g>
<g><path style="opacity:0.02" fill="#f4faff" d="M 370.5,18.5 C 372.669,20.3403 374.002,22.6737 374.5,25.5C 372.412,23.6644 371.079,21.3311 370.5,18.5 Z"/></g>
<g><path style="opacity:0.014" fill="#eef5fe" d="M 374.5,25.5 C 376.408,26.4856 377.408,28.1523 377.5,30.5C 375.75,29.3406 374.75,27.674 374.5,25.5 Z"/></g>
<g><path style="opacity:0.073" fill="#fefffe" d="M 235.5,26.5 C 235.5,27.8333 234.833,28.5 233.5,28.5C 233.833,27.5 234.5,26.8333 235.5,26.5 Z"/></g>
<g><path style="opacity:0.24" fill="#f5f6f8" d="M 209.5,21.5 C 196.756,15.3412 184.756,16.5078 173.5,25C 161.395,41.1033 163.395,55.27 179.5,67.5C 176.821,67.3274 174.487,66.3274 172.5,64.5C 161.819,54.2562 159.986,42.5895 167,29.5C 175.618,18.7843 186.785,14.6176 200.5,17C 204.035,17.6633 207.035,19.1633 209.5,21.5 Z"/></g>
<g><path style="opacity:0.071" fill="#b0b7be" d="M 58.5,18.5 C 58.5,22.1667 58.5,25.8333 58.5,29.5C 67.0168,29.1739 75.3501,29.5073 83.5,30.5C 82.5,30.5 81.5,30.5 80.5,30.5C 72.8333,30.5 65.1667,30.5 57.5,30.5C 57.1832,26.2984 57.5166,22.2984 58.5,18.5 Z"/></g>
<g><path style="opacity:0.066" fill="#f0f3f5" d="M 209.5,21.5 C 212.817,22.3054 215.483,24.1388 217.5,27C 214.231,30.9437 210.398,34.1104 206,36.5C 203.431,35.1316 200.931,33.6316 198.5,32C 195.183,31.5017 191.85,31.335 188.5,31.5C 188.611,30.8826 188.944,30.3826 189.5,30C 195.913,28.8526 201.579,30.3526 206.5,34.5C 209.938,32.5652 212.938,30.0652 215.5,27C 213.604,24.932 211.604,23.0987 209.5,21.5 Z"/></g>
<g><path style="opacity:0.663" fill="#98b0cb" d="M 236.5,18.5 C 236.802,21.0593 236.468,23.3926 235.5,25.5C 235.5,23.5 235.5,21.5 235.5,19.5C 231.167,19.5 226.833,19.5 222.5,19.5C 222.177,26.0221 222.51,32.3554 223.5,38.5C 223.44,39.0431 223.107,39.3764 222.5,39.5C 221.503,32.5316 221.17,25.5316 221.5,18.5C 226.5,18.5 231.5,18.5 236.5,18.5 Z"/></g>
<g><path style="opacity:0.189" fill="#f0f1f1" d="M 52.5,30.5 C 52.5,30.1667 52.5,29.8333 52.5,29.5C 52.5,25.8333 52.5,22.1667 52.5,18.5C 37.5,18.5 22.5,18.5 7.5,18.5C 7.5,22.1667 7.5,25.8333 7.5,29.5C 12.6946,29.1795 17.6946,29.5128 22.5,30.5C 22.5,43.5 22.5,56.5 22.5,69.5C 27.1667,69.5 31.8333,69.5 36.5,69.5C 36.8333,69.5 37.1667,69.5 37.5,69.5C 32.3595,70.4881 27.0262,70.8214 21.5,70.5C 21.5,57.5 21.5,44.5 21.5,31.5C 16.4889,31.6659 11.4889,31.4993 6.5,31C 5.53335,26.5986 5.20001,22.0986 5.5,17.5C 21.8333,17.5 38.1667,17.5 54.5,17.5C 55.0969,22.294 54.4302,26.6273 52.5,30.5 Z"/></g>
<g><path style="opacity:0.144" fill="#fdfdfd" d="M 39.5,30.5 C 38.8507,43.5983 38.184,56.5983 37.5,69.5C 36.8524,56.1237 37.5191,43.1237 39.5,30.5 Z"/></g>
<g><path style="opacity:0.122" fill="#e9f2fe" d="M 377.5,30.5 C 379.993,32.6576 381.66,35.3243 382.5,38.5C 380.05,36.3709 378.383,33.7043 377.5,30.5 Z"/></g>
<g><path style="opacity:0.012" fill="#fbfbff" d="M 408.5,34.5 C 408.771,36.3797 408.104,37.713 406.5,38.5C 406.66,36.847 407.326,35.5137 408.5,34.5 Z"/></g>
<g><path style="opacity:0.142" fill="#f8fbfe" d="M 416.5,69.5 C 414.359,70.1633 412.025,70.4966 409.5,70.5C 405.8,70.6572 402.3,69.9905 399,68.5C 397.699,66.6354 397.365,64.6354 398,62.5C 399.677,57.4787 401.844,52.6453 404.5,48C 403.824,46.3167 402.824,46.1501 401.5,47.5C 402.774,44.2402 404.44,41.2402 406.5,38.5C 406.917,39.1239 407.584,39.4573 408.5,39.5C 410.5,38.5 412.5,37.5 414.5,36.5C 415.442,36.6082 416.275,36.9415 417,37.5C 417.825,48.3414 417.659,59.008 416.5,69.5 Z"/></g>
<g><path style="opacity:0.089" fill="#f1f3f6" d="M 188.5,31.5 C 181.699,37.8759 180.699,45.2092 185.5,53.5C 187.504,55.7523 190.004,57.0857 193,57.5C 197.86,56.5691 202.193,54.5691 206,51.5C 209.964,52.9639 212.797,55.6306 214.5,59.5C 212.09,56.9273 209.257,54.9273 206,53.5C 204.225,54.2703 202.725,55.437 201.5,57C 191.723,60.8534 184.889,58.0201 181,48.5C 178.697,40.4554 181.197,34.7887 188.5,31.5 Z"/></g>
<g><path style="opacity:0.056" fill="#f0f4f7" d="M 257.5,34.5 C 256.765,37.0615 255.431,39.2282 253.5,41C 253.989,42.1385 254.322,43.3052 254.5,44.5C 252.707,44.1164 251.707,42.9497 251.5,41C 252.985,38.3483 254.985,36.1816 257.5,34.5 Z"/></g>
<g><path style="opacity:0.695" fill="#bddcfb" d="M 359.5,41.5 C 358.506,50.6517 358.173,59.985 358.5,69.5C 357.342,59.6753 357.175,49.6753 358,39.5C 358.717,40.0442 359.217,40.7109 359.5,41.5 Z"/></g>
<g><path style="opacity:0.835" fill="#85c0fb" d="M 416.5,69.5 C 412.167,69.5 407.833,69.5 403.5,69.5C 403.335,66.4816 403.502,63.4816 404,60.5C 407.747,53.3372 411.747,46.3372 416,39.5C 416.5,49.4944 416.666,59.4944 416.5,69.5 Z"/></g>
<g><path style="opacity:0.924" fill="#84c0fb" d="M 359.5,41.5 C 363.069,48.3024 366.902,54.9691 371,61.5C 371.497,64.146 371.664,66.8127 371.5,69.5C 367.167,69.5 362.833,69.5 358.5,69.5C 358.173,59.985 358.506,50.6517 359.5,41.5 Z"/></g>
<g><path style="opacity:0.137" fill="#fbfbfb" d="M 80.5,30.5 C 81.5,30.5 82.5,30.5 83.5,30.5C 85.4085,30.8834 86.9085,31.8834 88,33.5C 90.2711,39.9994 88.1045,43.666 81.5,44.5C 73.5,44.5 65.5,44.5 57.5,44.5C 57.1739,53.0168 57.5073,61.3501 58.5,69.5C 62.8333,69.5 67.1667,69.5 71.5,69.5C 71.8333,69.5 72.1667,69.5 72.5,69.5C 67.3595,70.4881 62.0262,70.8214 56.5,70.5C 56.1966,61.7699 56.1966,53.1032 56.5,44.5C 66.2481,43.9504 75.9147,43.117 85.5,42C 87.9157,36.2276 86.249,32.3942 80.5,30.5 Z"/></g>
<g><path style="opacity:0.443" fill="#a1a2a7" d="M 52.5,29.5 C 52.5,29.8333 52.5,30.1667 52.5,30.5C 48.1667,30.5 43.8333,30.5 39.5,30.5C 37.5191,43.1237 36.8524,56.1237 37.5,69.5C 37.1667,69.5 36.8333,69.5 36.5,69.5C 36.5,69.1667 36.5,68.8333 36.5,68.5C 36.5,55.5 36.5,42.5 36.5,29.5C 41.8333,29.5 47.1667,29.5 52.5,29.5 Z"/></g>
<g><path style="opacity:0.056" fill="#f0f3f7" d="M 254.5,44.5 C 256.446,45.0347 257.446,46.368 257.5,48.5C 255.554,47.9653 254.554,46.632 254.5,44.5 Z"/></g>
<g><path style="opacity:0.004" fill="#fefffe" d="M 193.5,46.5 C 196.187,46.3359 198.854,46.5026 201.5,47C 199,47.3747 196.667,48.2081 194.5,49.5C 193.205,48.9017 191.872,48.4017 190.5,48C 191.737,47.7679 192.737,47.2679 193.5,46.5 Z"/></g>
<g><path style="opacity:0.024" fill="#f7f8fa" d="M 257.5,48.5 C 259.048,48.8212 259.715,49.8212 259.5,51.5C 258.094,51.0269 257.427,50.0269 257.5,48.5 Z"/></g>
<g><path style="opacity:0.011" fill="#fcfdff" d="M 401.5,47.5 C 401.25,49.674 400.25,51.3406 398.5,52.5C 398.75,50.326 399.75,48.6594 401.5,47.5 Z"/></g>
<g><path style="opacity:0.004" fill="#fefffe" d="M 192.5,50.5 C 193.5,50.5 194.5,50.5 195.5,50.5C 194.754,54.31 193.754,54.31 192.5,50.5 Z"/></g>
<g><path style="opacity:0.678" fill="#5e6269" d="M 22.5,30.5 C 23.4954,42.989 23.8287,55.6557 23.5,68.5C 27.8333,68.5 32.1667,68.5 36.5,68.5C 36.5,68.8333 36.5,69.1667 36.5,69.5C 31.8333,69.5 27.1667,69.5 22.5,69.5C 22.5,56.5 22.5,43.5 22.5,30.5 Z"/></g>
<g><path style="opacity:0.02" fill="#edf1f5" d="M 259.5,51.5 C 262.59,53.2683 264.59,55.9349 265.5,59.5C 263.025,57.2297 261.025,54.563 259.5,51.5 Z"/></g>
<g><path style="opacity:0.024" fill="#fbfcff" d="M 398.5,52.5 C 398.727,54.9328 397.727,56.5994 395.5,57.5C 395.75,55.326 396.75,53.6594 398.5,52.5 Z"/></g>
<g><path style="opacity:0.077" fill="#f3f4f5" d="M 97.5,51.5 C 96.5876,52.7382 96.4209,54.0715 97,55.5C 99.6667,59.1667 102.333,62.8333 105,66.5C 105.74,67.7494 105.573,68.7494 104.5,69.5C 101.555,64.7144 98.3879,60.0477 95,55.5C 94.0902,53.0551 94.9236,51.7218 97.5,51.5 Z"/></g>
<g><path style="opacity:0.014" fill="#eef7fb" d="M 348.5,52.5 C 348.397,55.6358 347.397,58.3025 345.5,60.5C 345.903,57.5145 346.903,54.8478 348.5,52.5 Z"/></g>
<g><path style="opacity:0.037" fill="#f9fbff" d="M 395.5,57.5 C 395.715,59.1788 395.048,60.1788 393.5,60.5C 393.427,58.9731 394.094,57.9731 395.5,57.5 Z"/></g>
<g><path style="opacity:0.575" fill="#89919c" d="M 81.5,44.5 C 74.0182,45.492 66.3516,45.8254 58.5,45.5C 58.5,53.5 58.5,61.5 58.5,69.5C 57.5073,61.3501 57.1739,53.0168 57.5,44.5C 65.5,44.5 73.5,44.5 81.5,44.5 Z"/></g>
<g><path style="opacity:0.154" fill="#fdfdfd" d="M 76.5,56.5 C 75.791,57.404 74.791,57.7373 73.5,57.5C 73.8168,61.7016 73.4834,65.7016 72.5,69.5C 72.5,65.1667 72.5,60.8333 72.5,56.5C 73.8333,56.5 75.1667,56.5 76.5,56.5 Z"/></g>
<g><path style="opacity:0.058" fill="#fcfdfd" d="M 214.5,59.5 C 216.225,59.8425 216.725,60.8425 216,62.5C 214.871,64.1412 213.371,65.1412 211.5,65.5C 212.625,63.8712 213.959,62.3712 215.5,61C 214.944,60.6174 214.611,60.1174 214.5,59.5 Z"/></g>
<g><path style="opacity:0.099" fill="#f1f2f3" d="M 78.5,56.5 C 79.1667,56.5 79.8333,56.5 80.5,56.5C 83.4285,60.694 86.0952,65.0274 88.5,69.5C 87.5041,69.5858 86.6708,69.2524 86,68.5C 83.2488,64.598 80.7488,60.598 78.5,56.5 Z"/></g>
<g><path style="opacity:0.027" fill="#f8fbfd" d="M 345.5,60.5 C 345.446,62.632 344.446,63.9653 342.5,64.5C 343.026,62.7697 344.026,61.4363 345.5,60.5 Z"/></g>
<g><path style="opacity:0.396" fill="#9aa1aa" d="M 80.5,56.5 C 79.8333,56.5 79.1667,56.5 78.5,56.5C 77.8333,56.5 77.1667,56.5 76.5,56.5C 75.1667,56.5 73.8333,56.5 72.5,56.5C 72.5,60.8333 72.5,65.1667 72.5,69.5C 72.1667,69.5 71.8333,69.5 71.5,69.5C 71.5,64.8333 71.5,60.1667 71.5,55.5C 74.7131,55.19 77.7131,55.5233 80.5,56.5 Z"/></g>
<g><path style="opacity:0.004" fill="#f6fafc" d="M 341.5,65.5 C 341.027,66.9063 340.027,67.573 338.5,67.5C 338.973,66.0937 339.973,65.427 341.5,65.5 Z"/></g>
<g><path style="opacity:0.858" fill="#a6bad2" d="M 222.5,54.5 C 222.5,59.1667 222.5,63.8333 222.5,68.5C 226.833,68.5 231.167,68.5 235.5,68.5C 235.183,64.2984 235.517,60.2984 236.5,56.5C 236.5,60.8333 236.5,65.1667 236.5,69.5C 231.5,70.8333 226.5,70.8333 221.5,69.5C 221.179,64.3054 221.513,59.3054 222.5,54.5 Z"/></g>
<g><path style="opacity:0.013" fill="#f4f5f8" d="M 181.5,68.5 C 184.01,68.9267 186.343,69.5933 188.5,70.5C 186.473,70.6621 184.473,70.4955 182.5,70C 181.944,69.6174 181.611,69.1174 181.5,68.5 Z"/></g>
<g><path style="opacity:0.018" fill="#f1f6fb" d="M 338.5,67.5 C 336.316,69.5848 333.649,70.5848 330.5,70.5C 332.89,68.9802 335.557,67.9802 338.5,67.5 Z"/></g>
<g><path style="opacity:0.011" fill="#f0f2f5" d="M 203.5,69.5 C 200.618,70.9128 197.451,71.5795 194,71.5C 191.967,71.4944 190.134,71.1611 188.5,70.5C 193.507,70.2491 198.507,69.9157 203.5,69.5 Z"/></g>
</svg>
