<?xml version="1.0" encoding="UTF-8"?>
<!DOCTYPE svg PUBLIC "-//W3C//DTD SVG 1.1//EN" "http://www.w3.org/Graphics/SVG/1.1/DTD/svg11.dtd">
<svg xmlns="http://www.w3.org/2000/svg" version="1.1" width="437px" height="408px" style="shape-rendering:geometricPrecision; text-rendering:geometricPrecision; image-rendering:optimizeQuality; fill-rule:evenodd; clip-rule:evenodd" xmlns:xlink="http://www.w3.org/1999/xlink">
<g><path style="opacity:1" fill="#901323" d="M 254.5,35.5 C 252.482,36.0472 250.649,37.0472 249,38.5C 248.333,35.8333 247.667,35.8333 247,38.5C 246.667,37.8333 246.333,37.1667 246,36.5C 245,37.5 244,38.5 243,39.5C 242.667,38.8333 242.333,38.1667 242,37.5C 240.434,36.9394 239.101,37.6061 238,39.5C 236.691,37.1088 235.691,37.1088 235,39.5C 233.413,38.273 232.079,38.6063 231,40.5C 226.675,39.497 222.175,40.1636 217.5,42.5C 215.939,41.6527 214.439,41.9861 213,43.5C 212.667,43.1667 212.333,42.8333 212,42.5C 210.981,43.6872 209.814,44.6872 208.5,45.5C 205.894,45.2549 203.394,45.2549 201,45.5C 200,46.5 199,47.5 198,48.5C 197.667,48.1667 197.333,47.8333 197,47.5C 195.757,49.8329 194.091,50.4996 192,49.5C 191.683,51.3008 191.016,51.6341 190,50.5C 187.044,50.9566 185.211,52.6233 184.5,55.5C 128.622,73.8786 92.1215,111.212 75,167.5C 71.0551,184.272 69.5551,201.272 70.5,218.5C 69.603,219.598 68.7697,219.598 68,218.5C 67.3333,222.5 66.6667,222.5 66,218.5C 65.4309,222.361 64.5976,222.361 63.5,218.5C 62.086,217.376 60.586,216.376 59,215.5C 59.1138,220.606 58.2805,225.273 56.5,229.5C 56.5,226.5 56.5,223.5 56.5,220.5C 61.5103,157.78 90.1769,106.613 142.5,67C 151.065,61.7196 158.898,56.8862 166,52.5C 167.558,53.3452 168.558,52.6785 169,50.5C 170.566,51.0606 171.899,50.3939 173,48.5C 173.333,48.8333 173.667,49.1667 174,49.5C 181.421,44.9587 188.754,41.9587 196,40.5C 196.75,39.8742 197.584,39.3742 198.5,39C 197.167,38.3333 197.167,37.6667 198.5,37C 197.906,36.5357 197.239,36.369 196.5,36.5C 215.672,31.6481 235.005,31.3148 254.5,35.5 Z"/></g>
<g><path style="opacity:1" fill="#891326" d="M 254.5,35.5 C 257.86,35.6159 261.193,35.9492 264.5,36.5C 264.646,38.9424 263.813,39.6091 262,38.5C 261.021,40.3203 259.521,41.487 257.5,42C 258.5,42.3333 259.5,42.6667 260.5,43C 258.939,43.3176 257.772,44.1509 257,45.5C 256.333,42.8333 255.667,42.8333 255,45.5C 254.333,42.8333 253.667,42.8333 253,45.5C 252.333,42.8333 251.667,42.8333 251,45.5C 250.333,42.8333 249.667,42.8333 249,45.5C 248.333,42.8333 247.667,42.8333 247,45.5C 246.333,42.8333 245.667,42.8333 245,45.5C 244.333,42.8333 243.667,42.8333 243,45.5C 242.333,42.8333 241.667,42.8333 241,45.5C 240.667,44.8333 240.333,44.1667 240,43.5C 238.903,45.0526 237.57,46.386 236,47.5C 232.134,46.722 228.134,46.3887 224,46.5C 222.052,47.1094 220.218,47.776 218.5,48.5C 218.167,49.1667 217.833,49.8333 217.5,50.5C 206.283,50.7584 195.283,52.4251 184.5,55.5C 185.211,52.6233 187.044,50.9566 190,50.5C 191.016,51.6341 191.683,51.3008 192,49.5C 194.091,50.4996 195.757,49.8329 197,47.5C 197.333,47.8333 197.667,48.1667 198,48.5C 199,47.5 200,46.5 201,45.5C 203.394,45.2549 205.894,45.2549 208.5,45.5C 209.814,44.6872 210.981,43.6872 212,42.5C 212.333,42.8333 212.667,43.1667 213,43.5C 214.439,41.9861 215.939,41.6527 217.5,42.5C 222.175,40.1636 226.675,39.497 231,40.5C 232.079,38.6063 233.413,38.273 235,39.5C 235.691,37.1088 236.691,37.1088 238,39.5C 239.101,37.6061 240.434,36.9394 242,37.5C 242.333,38.1667 242.667,38.8333 243,39.5C 244,38.5 245,37.5 246,36.5C 246.333,37.1667 246.667,37.8333 247,38.5C 247.667,35.8333 248.333,35.8333 249,38.5C 250.649,37.0472 252.482,36.0472 254.5,35.5 Z"/></g>
<g><path style="opacity:1" fill="#812139" d="M 280.5,41.5 C 286.267,42.531 291.601,44.531 296.5,47.5C 291.58,45.9284 286.58,45.095 281.5,45C 283.611,46.991 284.944,48.991 285.5,51C 284.833,51.3333 284.167,51.6667 283.5,52C 284.833,52.6667 285.833,53.6667 286.5,55C 285.167,55.6667 285.167,56.3333 286.5,57C 285.142,57.9344 283.808,58.7677 282.5,59.5C 279.421,58.696 276.421,57.696 273.5,56.5C 272.653,55.0337 271.32,54.2004 269.5,54C 269.833,53.6667 270.167,53.3333 270.5,53C 269.332,50.8366 268.665,48.8366 268.5,47C 271.232,46.6019 273.065,45.1019 274,42.5C 275.147,43.4581 276.147,43.1247 277,41.5C 278.292,42.7911 279.458,42.7911 280.5,41.5 Z"/></g>
<g><path style="opacity:1" fill="#84192f" d="M 264.5,36.5 C 270.01,37.8727 275.344,39.5394 280.5,41.5C 279.458,42.7911 278.292,42.7911 277,41.5C 276.147,43.1247 275.147,43.4581 274,42.5C 273.065,45.1019 271.232,46.6019 268.5,47C 268.665,48.8366 269.332,50.8366 270.5,53C 270.167,53.3333 269.833,53.6667 269.5,54C 271.32,54.2004 272.653,55.0337 273.5,56.5C 261.155,52.565 248.489,50.565 235.5,50.5C 236.952,49.6981 238.618,49.1981 240.5,49C 233.174,48.5003 225.841,48.3337 218.5,48.5C 220.218,47.776 222.052,47.1094 224,46.5C 228.134,46.3887 232.134,46.722 236,47.5C 237.57,46.386 238.903,45.0526 240,43.5C 240.333,44.1667 240.667,44.8333 241,45.5C 241.667,42.8333 242.333,42.8333 243,45.5C 243.667,42.8333 244.333,42.8333 245,45.5C 245.667,42.8333 246.333,42.8333 247,45.5C 247.667,42.8333 248.333,42.8333 249,45.5C 249.667,42.8333 250.333,42.8333 251,45.5C 251.667,42.8333 252.333,42.8333 253,45.5C 253.667,42.8333 254.333,42.8333 255,45.5C 255.667,42.8333 256.333,42.8333 257,45.5C 257.772,44.1509 258.939,43.3176 260.5,43C 259.5,42.6667 258.5,42.3333 257.5,42C 259.521,41.487 261.021,40.3203 262,38.5C 263.813,39.6091 264.646,38.9424 264.5,36.5 Z"/></g>
<g><path style="opacity:1" fill="#970f1c" d="M 196.5,36.5 C 197.239,36.369 197.906,36.5357 198.5,37C 197.167,37.6667 197.167,38.3333 198.5,39C 197.584,39.3742 196.75,39.8742 196,40.5C 188.754,41.9587 181.421,44.9587 174,49.5C 173.667,49.1667 173.333,48.8333 173,48.5C 171.899,50.3939 170.566,51.0606 169,50.5C 168.558,52.6785 167.558,53.3452 166,52.5C 158.898,56.8862 151.065,61.7196 142.5,67C 90.1769,106.613 61.5103,157.78 56.5,220.5C 52.7237,149.884 80.3903,95.3843 139.5,57C 157.108,46.2974 176.108,39.464 196.5,36.5 Z"/></g>
<g><path style="opacity:0.039" fill="#89566d" d="M 218.5,48.5 C 225.841,48.3337 233.174,48.5003 240.5,49C 238.618,49.1981 236.952,49.6981 235.5,50.5C 229.5,50.5 223.5,50.5 217.5,50.5C 217.833,49.8333 218.167,49.1667 218.5,48.5 Z"/></g>
<g><path style="opacity:1" fill="#7d2f48" d="M 296.5,47.5 C 305.585,50.5413 313.919,54.8747 321.5,60.5C 319.833,60.5 318.167,60.5 316.5,60.5C 316.906,62.1092 316.906,63.4425 316.5,64.5C 315.479,62.3811 313.979,60.7144 312,59.5C 310.853,60.4581 309.853,60.1247 309,58.5C 307.853,59.4581 306.853,59.1247 306,57.5C 304.853,58.4581 303.853,58.1247 303,56.5C 302.259,57.6405 301.425,57.6405 300.5,56.5C 299.97,57.7562 299.97,59.2562 300.5,61C 299.5,62 298.5,63 297.5,64C 296.231,63.8915 295.231,64.0582 294.5,64.5C 290.261,63.2042 286.261,61.5375 282.5,59.5C 283.808,58.7677 285.142,57.9344 286.5,57C 285.167,56.3333 285.167,55.6667 286.5,55C 285.833,53.6667 284.833,52.6667 283.5,52C 284.167,51.6667 284.833,51.3333 285.5,51C 284.944,48.991 283.611,46.991 281.5,45C 286.58,45.095 291.58,45.9284 296.5,47.5 Z"/></g>
<g><path style="opacity:1" fill="#73405e" d="M 321.5,60.5 C 329.408,64.6228 336.408,69.9562 342.5,76.5C 342.631,77.2389 342.464,77.9056 342,78.5C 339.81,75.7514 338.143,76.0847 337,79.5C 336.259,78.3595 335.425,78.3595 334.5,79.5C 333.459,77.0087 332.626,77.0087 332,79.5C 331.667,78.8333 331.333,78.1667 331,77.5C 329.197,81.3352 327.864,81.6685 327,78.5C 326.517,79.448 326.351,80.448 326.5,81.5C 325.391,81.5569 324.391,81.8902 323.5,82.5C 314.301,75.7343 304.634,69.7343 294.5,64.5C 295.231,64.0582 296.231,63.8915 297.5,64C 298.5,63 299.5,62 300.5,61C 299.97,59.2562 299.97,57.7562 300.5,56.5C 301.425,57.6405 302.259,57.6405 303,56.5C 303.853,58.1247 304.853,58.4581 306,57.5C 306.853,59.1247 307.853,59.4581 309,58.5C 309.853,60.1247 310.853,60.4581 312,59.5C 313.979,60.7144 315.479,62.3811 316.5,64.5C 316.906,63.4425 316.906,62.1092 316.5,60.5C 318.167,60.5 319.833,60.5 321.5,60.5 Z"/></g>
<g><path style="opacity:1" fill="#6c4c6c" d="M 342.5,76.5 C 351.209,82.875 358.542,90.5417 364.5,99.5C 364.565,99.9382 364.399,100.272 364,100.5C 361.192,96.4994 357.859,93.166 354,90.5C 353.333,91.8333 352.667,91.8333 352,90.5C 352.984,92.5979 352.651,94.5979 351,96.5C 350.333,93.8333 349.667,93.8333 349,96.5C 348.667,95.8333 348.333,95.1667 348,94.5C 347.333,95.8333 346.667,97.1667 346,98.5C 345.676,96.4311 344.842,96.0977 343.5,97.5C 337.714,92.0397 332.047,86.7064 326.5,81.5C 326.351,80.448 326.517,79.448 327,78.5C 327.864,81.6685 329.197,81.3352 331,77.5C 331.333,78.1667 331.667,78.8333 332,79.5C 332.626,77.0087 333.459,77.0087 334.5,79.5C 335.425,78.3595 336.259,78.3595 337,79.5C 338.143,76.0847 339.81,75.7514 342,78.5C 342.464,77.9056 342.631,77.2389 342.5,76.5 Z"/></g>
<g><path style="opacity:1" fill="#645477" d="M 326.5,81.5 C 332.047,86.7064 337.714,92.0397 343.5,97.5C 344.842,96.0977 345.676,96.4311 346,98.5C 346.667,97.1667 347.333,95.8333 348,94.5C 348.333,95.1667 348.667,95.8333 349,96.5C 349.667,93.8333 350.333,93.8333 351,96.5C 352.651,94.5979 352.984,92.5979 352,90.5C 352.667,91.8333 353.333,91.8333 354,90.5C 357.859,93.166 361.192,96.4994 364,100.5C 364.399,100.272 364.565,99.9382 364.5,99.5C 368.94,104.278 372.607,109.612 375.5,115.5C 375.33,116.822 375.663,117.989 376.5,119C 372.5,120.333 372.5,121.667 376.5,123C 375.251,124.824 374.085,124.657 373,122.5C 372.667,123.5 372.333,124.5 372,125.5C 370.819,121.824 368.485,119.157 365,117.5C 363.85,118.424 362.85,118.424 362,117.5C 361.52,119.133 360.687,120.466 359.5,121.5C 349.623,106.62 337.623,93.6198 323.5,82.5C 324.391,81.8902 325.391,81.5569 326.5,81.5 Z"/></g>
<g><path style="opacity:1" fill="#03214d" d="M 250.5,125.5 C 249.185,126.476 247.852,127.476 246.5,128.5C 247.5,128.833 248.5,129.167 249.5,129.5C 251.03,129.36 252.03,128.693 252.5,127.5C 262.55,127.929 272.217,130.096 281.5,134C 300.474,141.231 316.307,152.731 329,168.5C 329.783,170.433 329.283,171.933 327.5,173C 324.066,173.214 320.733,172.714 317.5,171.5C 317.389,170.883 317.056,170.383 316.5,170C 313.112,169.341 309.779,169.508 306.5,170.5C 304.645,170.272 303.812,170.939 304,172.5C 310.143,178.788 315.309,185.788 319.5,193.5C 318.717,195.288 317.384,196.288 315.5,196.5C 313.458,194.17 310.792,193.004 307.5,193C 303.642,192.19 299.976,192.357 296.5,193.5C 293.557,194.367 290.557,195.367 287.5,196.5C 285.666,186.832 284.166,176.832 283,166.5C 276.171,173.501 268.004,178.335 258.5,181C 240.577,184.318 222.91,188.651 205.5,194C 198.756,196.612 193.256,200.778 189,206.5C 188.503,208.81 188.337,211.143 188.5,213.5C 186.265,213.205 184.265,213.539 182.5,214.5C 179.674,214.998 177.34,216.331 175.5,218.5C 174.391,218.443 173.391,218.11 172.5,217.5C 160.498,189.307 166.498,165.474 190.5,146C 202.922,138.122 215.922,131.288 229.5,125.5C 229.435,125.938 229.601,126.272 230,126.5C 234.275,123.959 238.775,121.792 243.5,120C 245.692,118.933 247.358,117.433 248.5,115.5C 251.349,112.509 253.349,113.009 254.5,117C 253.826,120.18 252.492,123.014 250.5,125.5 Z"/></g>
<g><path style="opacity:1" fill="#5a577f" d="M 375.5,115.5 C 381.454,123.738 386.12,132.738 389.5,142.5C 388.691,144.013 388.524,145.68 389,147.5C 387.615,146.449 386.615,145.116 386,143.5C 384.16,144.833 383.66,144.666 384.5,143C 383.601,141.764 382.434,140.93 381,140.5C 380.807,141.805 379.807,143.139 378,144.5C 377.026,142.122 376.359,142.456 376,145.5C 375.333,144.167 374.667,142.833 374,141.5C 373.667,142.167 373.333,142.833 373,143.5C 372.329,142.748 371.496,142.414 370.5,142.5C 367.088,135.342 363.422,128.342 359.5,121.5C 360.687,120.466 361.52,119.133 362,117.5C 362.85,118.424 363.85,118.424 365,117.5C 368.485,119.157 370.819,121.824 372,125.5C 372.333,124.5 372.667,123.5 373,122.5C 374.085,124.657 375.251,124.824 376.5,123C 372.5,121.667 372.5,120.333 376.5,119C 375.663,117.989 375.33,116.822 375.5,115.5 Z"/></g>
<g><path style="opacity:0.745" fill="#3c4d7c" d="M 248.5,115.5 C 247.358,117.433 245.692,118.933 243.5,120C 238.775,121.792 234.275,123.959 230,126.5C 229.601,126.272 229.435,125.938 229.5,125.5C 235.641,121.928 241.974,118.595 248.5,115.5 Z"/></g>
<g><path style="opacity:0.459" fill="#515b85" d="M 250.5,125.5 C 250.5,126.833 251.167,127.5 252.5,127.5C 252.03,128.693 251.03,129.36 249.5,129.5C 248.5,129.167 247.5,128.833 246.5,128.5C 247.852,127.476 249.185,126.476 250.5,125.5 Z"/></g>
<g><path style="opacity:1" fill="#505a85" d="M 389.5,142.5 C 392.935,150.569 395.602,158.902 397.5,167.5C 396.105,165.946 395.439,166.279 395.5,168.5C 396.496,171.797 396.663,175.131 396,178.5C 395.396,176.314 394.23,176.148 392.5,178C 394.513,179.791 394.513,181.125 392.5,182C 393.308,182.308 393.975,182.808 394.5,183.5C 393.939,185.426 393.773,187.426 394,189.5C 393.535,188.069 392.701,186.903 391.5,186C 391.5,184.667 391.5,183.333 391.5,182C 389.606,180.899 388.939,179.566 389.5,178C 386.495,175.116 384.661,171.95 384,168.5C 383.667,168.167 383.333,167.833 383,167.5C 382.925,169.935 382.092,170.602 380.5,169.5C 377.584,160.427 374.251,151.427 370.5,142.5C 371.496,142.414 372.329,142.748 373,143.5C 373.333,142.833 373.667,142.167 374,141.5C 374.667,142.833 375.333,144.167 376,145.5C 376.359,142.456 377.026,142.122 378,144.5C 379.807,143.139 380.807,141.805 381,140.5C 382.434,140.93 383.601,141.764 384.5,143C 383.66,144.666 384.16,144.833 386,143.5C 386.615,145.116 387.615,146.449 389,147.5C 388.524,145.68 388.691,144.013 389.5,142.5 Z"/></g>
<g><path style="opacity:0.999" fill="#fdb8af" d="M 287.5,196.5 C 286.228,202.032 284.894,207.532 283.5,213C 287.066,219.158 288.733,225.825 288.5,233C 287.037,252.721 281.537,271.221 272,288.5C 267.351,292.666 261.851,295 255.5,295.5C 254.017,298.612 254.35,301.445 256.5,304C 259.237,305.076 261.904,306.243 264.5,307.5C 258.859,316.324 250.859,321.657 240.5,323.5C 230.453,324.83 220.453,324.496 210.5,322.5C 199.765,319.798 189.765,315.464 180.5,309.5C 180.737,308.209 180.404,307.209 179.5,306.5C 185.708,301.113 190.208,294.447 193,286.5C 193.5,275.839 193.667,265.172 193.5,254.5C 193.044,250.336 192.378,246.336 191.5,242.5C 190.081,241.549 188.415,241.216 186.5,241.5C 186.5,242.5 186.5,243.5 186.5,244.5C 174.396,242.056 169.396,234.723 171.5,222.5C 173.264,221.674 174.598,220.341 175.5,218.5C 177.34,216.331 179.674,214.998 182.5,214.5C 183.552,214.351 184.552,214.517 185.5,215C 175.347,222.588 175.013,230.588 184.5,239C 186.436,239.813 188.436,240.313 190.5,240.5C 189.142,231.841 188.476,222.841 188.5,213.5C 188.337,211.143 188.503,208.81 189,206.5C 193.256,200.778 198.756,196.612 205.5,194C 222.91,188.651 240.577,184.318 258.5,181C 268.004,178.335 276.171,173.501 283,166.5C 284.166,176.832 285.666,186.832 287.5,196.5 Z"/></g>
<g><path style="opacity:0.286" fill="#44507d" d="M 317.5,171.5 C 313.629,171.815 309.962,171.482 306.5,170.5C 309.779,169.508 313.112,169.341 316.5,170C 317.056,170.383 317.389,170.883 317.5,171.5 Z"/></g>
<g><path style="opacity:1" fill="#445888" d="M 397.5,167.5 C 402.899,194.037 402.565,220.37 396.5,246.5C 396.838,243.675 395.838,241.508 393.5,240C 395.922,237.888 395.922,235.888 393.5,234C 396.241,225.212 394.408,217.712 388,211.5C 387.667,209.833 387.333,208.167 387,206.5C 386.733,214.258 385.899,221.924 384.5,229.5C 384.741,231.898 384.074,233.898 382.5,235.5C 383.053,230.518 383.387,225.518 383.5,220.5C 384.222,220.082 384.722,219.416 385,218.5C 385.667,210.833 385.667,203.167 385,195.5C 384.617,194.944 384.117,194.611 383.5,194.5C 383.479,186.041 382.479,177.708 380.5,169.5C 382.092,170.602 382.925,169.935 383,167.5C 383.333,167.833 383.667,168.167 384,168.5C 384.661,171.95 386.495,175.116 389.5,178C 388.939,179.566 389.606,180.899 391.5,182C 391.5,183.333 391.5,184.667 391.5,186C 392.701,186.903 393.535,188.069 394,189.5C 393.773,187.426 393.939,185.426 394.5,183.5C 393.975,182.808 393.308,182.308 392.5,182C 394.513,181.125 394.513,179.791 392.5,178C 394.23,176.148 395.396,176.314 396,178.5C 396.663,175.131 396.496,171.797 395.5,168.5C 395.439,166.279 396.105,165.946 397.5,167.5 Z"/></g>
<g><path style="opacity:0.745" fill="#424c7a" d="M 296.5,193.5 C 299.976,192.357 303.642,192.19 307.5,193C 310.792,193.004 313.458,194.17 315.5,196.5C 309.367,194.341 303.034,193.341 296.5,193.5 Z"/></g>
<g><path style="opacity:0.039" fill="#89718b" d="M 383.5,194.5 C 384.117,194.611 384.617,194.944 385,195.5C 385.667,203.167 385.667,210.833 385,218.5C 384.722,219.416 384.222,220.082 383.5,220.5C 383.5,211.833 383.5,203.167 383.5,194.5 Z"/></g>
<g><path style="opacity:1" fill="#9c7e89" d="M 221.5,202.5 C 228.2,202.17 234.866,202.503 241.5,203.5C 233.987,204.214 226.487,204.881 219,205.5C 218.5,205.167 218,204.833 217.5,204.5C 218.949,203.828 220.282,203.161 221.5,202.5 Z"/></g>
<g><path style="opacity:1" fill="#9c7e8a" d="M 269.5,202.5 C 286.4,202.778 286.566,203.778 270,205.5C 266.993,205.001 266.826,204.001 269.5,202.5 Z"/></g>
<g><path style="opacity:1" fill="#38558a" d="M 396.5,246.5 C 383.704,295.628 355.37,332.795 311.5,358C 308.264,359.786 304.93,361.286 301.5,362.5C 300.735,362.077 299.902,361.743 299,361.5C 296.128,363.631 292.962,365.298 289.5,366.5C 286.498,365.37 283.665,364.703 281,364.5C 280.683,366.301 280.016,366.634 279,365.5C 278.333,368.167 277.667,368.167 277,365.5C 276.333,368.167 275.667,368.167 275,365.5C 274.667,366.167 274.333,366.833 274,367.5C 272.221,366.521 270.555,366.854 269,368.5C 267.667,365.833 266.333,365.833 265,368.5C 263,367.167 261,367.167 259,368.5C 257,365.833 255,365.833 253,368.5C 250.688,368.045 248.688,367.045 247,365.5C 246.549,367.929 245.715,368.096 244.5,366C 245.056,365.617 245.389,365.117 245.5,364.5C 250.092,364.118 254.425,363.118 258.5,361.5C 266.661,360.113 274.661,358.113 282.5,355.5C 322.866,348.418 353.033,326.084 373,288.5C 379.464,274.323 383.464,259.989 385,245.5C 385.5,245 386,244.5 386.5,244C 385.554,240.196 385.554,236.196 386.5,232C 386.333,230.833 386.167,229.667 386,228.5C 385.617,229.056 385.117,229.389 384.5,229.5C 385.899,221.924 386.733,214.258 387,206.5C 387.333,208.167 387.667,209.833 388,211.5C 394.408,217.712 396.241,225.212 393.5,234C 395.922,235.888 395.922,237.888 393.5,240C 395.838,241.508 396.838,243.675 396.5,246.5 Z"/></g>
<g><path style="opacity:1" fill="#232f58" d="M 272.5,211.5 C 277.663,211.107 279.33,213.273 277.5,218C 271.013,219.158 269.347,216.991 272.5,211.5 Z"/></g>
<g><path style="opacity:1" fill="#eaad9e" d="M 182.5,214.5 C 184.265,213.539 186.265,213.205 188.5,213.5C 188.476,222.841 189.142,231.841 190.5,240.5C 188.436,240.313 186.436,239.813 184.5,239C 175.013,230.588 175.347,222.588 185.5,215C 184.552,214.517 183.552,214.351 182.5,214.5 Z"/></g>
<g><path style="opacity:1" fill="#0d2651" d="M 227.5,214.5 C 233.158,213.679 234.825,215.846 232.5,221C 226.741,222.139 225.074,219.972 227.5,214.5 Z"/></g>
<g><path style="opacity:1" fill="#8a2135" d="M 70.5,218.5 C 70.9422,222.154 71.2756,225.821 71.5,229.5C 70.7222,232.394 69.2222,235.394 67,238.5C 65.0072,237.853 63.3406,236.187 62,233.5C 60.3129,235.607 59.8129,237.774 60.5,240C 60.1639,241.03 59.4972,241.53 58.5,241.5C 58.0479,237.454 57.3813,233.454 56.5,229.5C 58.2805,225.273 59.1138,220.606 59,215.5C 60.586,216.376 62.086,217.376 63.5,218.5C 64.5976,222.361 65.4309,222.361 66,218.5C 66.6667,222.5 67.3333,222.5 68,218.5C 68.7697,219.598 69.603,219.598 70.5,218.5 Z"/></g>
<g><path style="opacity:0.616" fill="#756f8f" d="M 172.5,217.5 C 173.391,218.11 174.391,218.443 175.5,218.5C 174.598,220.341 173.264,221.674 171.5,222.5C 172.301,220.958 172.634,219.292 172.5,217.5 Z"/></g>
<g><path style="opacity:1" fill="#872d42" d="M 71.5,229.5 C 72.7014,235.505 74.0348,241.505 75.5,247.5C 74.8969,249.19 73.8969,250.69 72.5,252C 73.5762,253.726 73.7429,255.559 73,257.5C 72.6411,254.456 71.9745,254.122 71,256.5C 70.3333,255.167 69.6667,253.833 69,252.5C 68.3333,255.167 67.6667,255.167 67,252.5C 66.6667,252.833 66.3333,253.167 66,253.5C 64.8707,260.315 66.3707,266.648 70.5,272.5C 72.4697,274.707 73.1363,277.04 72.5,279.5C 66.0741,267.563 61.4074,254.896 58.5,241.5C 59.4972,241.53 60.1639,241.03 60.5,240C 59.8129,237.774 60.3129,235.607 62,233.5C 63.3406,236.187 65.0072,237.853 67,238.5C 69.2222,235.394 70.7222,232.394 71.5,229.5 Z"/></g>
<g><path style="opacity:1" fill="#8c7384" d="M 257.5,213.5 C 260.298,221.41 262.631,229.577 264.5,238C 264.256,241.919 262.256,243.585 258.5,243C 261.047,242.564 262.38,241.064 262.5,238.5C 260.939,230.131 259.272,221.798 257.5,213.5 Z"/></g>
<g><path style="opacity:1" fill="#897083" d="M 242.5,237.5 C 243.376,237.369 244.043,237.702 244.5,238.5C 243.067,240.809 243.734,242.309 246.5,243C 245.216,243.684 244.049,243.517 243,242.5C 242.506,240.866 242.34,239.199 242.5,237.5 Z"/></g>
<g><path style="opacity:0.616" fill="#9b8497" d="M 191.5,242.5 C 190.167,242.5 188.833,242.5 187.5,242.5C 187.629,244.216 187.962,245.883 188.5,247.5C 187.094,247.027 186.427,246.027 186.5,244.5C 186.5,243.5 186.5,242.5 186.5,241.5C 188.415,241.216 190.081,241.549 191.5,242.5 Z"/></g>
<g><path style="opacity:0.459" fill="#4d4e74" d="M 191.5,242.5 C 192.378,246.336 193.044,250.336 193.5,254.5C 191.478,252.469 189.811,250.135 188.5,247.5C 187.962,245.883 187.629,244.216 187.5,242.5C 188.833,242.5 190.167,242.5 191.5,242.5 Z"/></g>
<g><path style="opacity:0.569" fill="#4f5a86" d="M 382.5,235.5 C 381.305,246.26 378.472,256.927 374,267.5C 373.583,268.756 372.75,269.423 371.5,269.5C 375.595,258.217 379.262,246.883 382.5,235.5 Z"/></g>
<g><path style="opacity:1" fill="#823c54" d="M 75.5,247.5 C 77.6304,254.558 79.9638,261.558 82.5,268.5C 81.8519,270.086 81.3519,271.753 81,273.5C 79.0109,271.616 77.0109,271.283 75,272.5C 74.1667,271.667 73.3333,270.833 72.5,270C 73.4506,269.282 73.6172,268.449 73,267.5C 72.3333,268.833 71.6667,268.833 71,267.5C 70.5065,269.134 70.3398,270.801 70.5,272.5C 66.3707,266.648 64.8707,260.315 66,253.5C 66.3333,253.167 66.6667,252.833 67,252.5C 67.6667,255.167 68.3333,255.167 69,252.5C 69.6667,253.833 70.3333,255.167 71,256.5C 71.9745,254.122 72.6411,254.456 73,257.5C 73.7429,255.559 73.5762,253.726 72.5,252C 73.8969,250.69 74.8969,249.19 75.5,247.5 Z"/></g>
<g><path style="opacity:1" fill="#937786" d="M 233.5,253.5 C 233.56,252.957 233.893,252.624 234.5,252.5C 238.995,256.051 243.995,258.551 249.5,260C 243.183,260.344 237.849,258.177 233.5,253.5 Z"/></g>
<g><path style="opacity:1" fill="#2e518a" d="M 282.5,355.5 C 296.55,349.445 309.883,342.112 322.5,333.5C 330.64,327.553 338.14,320.887 345,313.5C 348.285,308.546 351.952,303.88 356,299.5C 356.791,298.255 357.291,296.922 357.5,295.5C 362.694,287.113 367.36,278.446 371.5,269.5C 372.75,269.423 373.583,268.756 374,267.5C 378.472,256.927 381.305,246.26 382.5,235.5C 384.074,233.898 384.741,231.898 384.5,229.5C 385.117,229.389 385.617,229.056 386,228.5C 386.167,229.667 386.333,230.833 386.5,232C 385.554,236.196 385.554,240.196 386.5,244C 386,244.5 385.5,245 385,245.5C 383.464,259.989 379.464,274.323 373,288.5C 353.033,326.084 322.866,348.418 282.5,355.5 Z"/></g>
<g><path style="opacity:1" fill="#7f465f" d="M 82.5,268.5 C 84.8251,273.123 87.1584,277.789 89.5,282.5C 87.832,284.34 86.332,286.34 85,288.5C 84.3333,285.833 83.6667,285.833 83,288.5C 79.833,283.109 77.9996,283.443 77.5,289.5C 74.7933,286.753 73.1266,283.42 72.5,279.5C 73.1363,277.04 72.4697,274.707 70.5,272.5C 70.3398,270.801 70.5065,269.134 71,267.5C 71.6667,268.833 72.3333,268.833 73,267.5C 73.6172,268.449 73.4506,269.282 72.5,270C 73.3333,270.833 74.1667,271.667 75,272.5C 77.0109,271.283 79.0109,271.616 81,273.5C 81.3519,271.753 81.8519,270.086 82.5,268.5 Z"/></g>
<g><path style="opacity:1" fill="#ebae9e" d="M 201.5,268.5 C 210.471,274.991 219.471,281.491 228.5,288C 236.233,292.256 244.233,294.589 252.5,295C 253.435,297.381 253.768,299.881 253.5,302.5C 238.72,303.076 226.22,298.076 216,287.5C 210.927,281.272 206.093,274.938 201.5,268.5 Z"/></g>
<g><path style="opacity:1" fill="#7a4d68" d="M 89.5,282.5 C 92.8193,287.797 96.1526,293.131 99.5,298.5C 99.631,299.239 99.4643,299.906 99,300.5C 98.3333,299.167 97.6667,299.167 97,300.5C 96.3162,301.784 96.4829,302.951 97.5,304C 96.2513,305.824 95.0847,305.657 94,303.5C 93.4309,307.361 92.5976,307.361 91.5,303.5C 91.1667,303.667 90.8333,303.833 90.5,304C 90.6651,305.117 90.9984,306.284 91.5,307.5C 91.0431,308.298 90.3764,308.631 89.5,308.5C 84.7173,302.706 80.7173,296.372 77.5,289.5C 77.9996,283.443 79.833,283.109 83,288.5C 83.6667,285.833 84.3333,285.833 85,288.5C 86.332,286.34 87.832,284.34 89.5,282.5 Z"/></g>
<g><path style="opacity:1" fill="#735573" d="M 99.5,298.5 C 103.164,303.158 106.831,307.825 110.5,312.5C 110.631,313.239 110.464,313.906 110,314.5C 109.346,313.304 108.846,313.304 108.5,314.5C 109.934,316.22 110.767,318.22 111,320.5C 111.805,318.099 112.638,318.266 113.5,321C 112.069,321.465 110.903,322.299 110,323.5C 109,322.167 108,322.167 107,323.5C 106.189,322.04 105.355,321.707 104.5,322.5C 107.273,326.777 110.607,330.61 114.5,334C 114.272,334.399 113.938,334.565 113.5,334.5C 104.132,327.098 96.1318,318.431 89.5,308.5C 90.3764,308.631 91.0431,308.298 91.5,307.5C 90.9984,306.284 90.6651,305.117 90.5,304C 90.8333,303.833 91.1667,303.667 91.5,303.5C 92.5976,307.361 93.4309,307.361 94,303.5C 95.0847,305.657 96.2513,305.824 97.5,304C 96.4829,302.951 96.3162,301.784 97,300.5C 97.6667,299.167 98.3333,299.167 99,300.5C 99.4643,299.906 99.631,299.239 99.5,298.5 Z"/></g>
<g><path style="opacity:0.999" fill="#eae7fd" d="M 179.5,306.5 C 180.404,307.209 180.737,308.209 180.5,309.5C 189.765,315.464 199.765,319.798 210.5,322.5C 220.417,325.94 230.417,326.273 240.5,323.5C 250.859,321.657 258.859,316.324 264.5,307.5C 283.119,313.978 301.119,321.811 318.5,331C 320.197,331.384 321.863,331.218 323.5,330.5C 322.89,331.391 322.557,332.391 322.5,333.5C 309.883,342.112 296.55,349.445 282.5,355.5C 274.661,358.113 266.661,360.113 258.5,361.5C 252.642,362.141 246.975,363.141 241.5,364.5C 232.167,364.5 222.833,364.5 213.5,364.5C 207.444,362.547 201.111,361.547 194.5,361.5C 175.696,357.017 158.029,350.017 141.5,340.5C 138.856,338.031 136.023,335.698 133,333.5C 132.517,332.552 132.351,331.552 132.5,330.5C 148.01,322.245 163.677,314.245 179.5,306.5 Z"/></g>
<g><path style="opacity:1" fill="#6e5c7b" d="M 110.5,312.5 C 115.86,317.528 121.193,322.528 126.5,327.5C 124.069,329.068 124.069,330.568 126.5,332C 126.167,332.333 125.833,332.667 125.5,333C 127.831,335.2 127.831,337.2 125.5,339C 126.711,340.113 126.711,341.28 125.5,342.5C 126.09,343.799 127.09,344.632 128.5,345C 127.944,345.383 127.611,345.883 127.5,346.5C 122.514,342.845 117.847,338.845 113.5,334.5C 113.938,334.565 114.272,334.399 114.5,334C 110.607,330.61 107.273,326.777 104.5,322.5C 105.355,321.707 106.189,322.04 107,323.5C 108,322.167 109,322.167 110,323.5C 110.903,322.299 112.069,321.465 113.5,321C 112.638,318.266 111.805,318.099 111,320.5C 110.767,318.22 109.934,316.22 108.5,314.5C 108.846,313.304 109.346,313.304 110,314.5C 110.464,313.906 110.631,313.239 110.5,312.5 Z"/></g>
<g><path style="opacity:1" fill="#f7cdd0" d="M 210.5,322.5 C 220.453,324.496 230.453,324.83 240.5,323.5C 230.417,326.273 220.417,325.94 210.5,322.5 Z"/></g>
<g><path style="opacity:0.569" fill="#525d89" d="M 357.5,295.5 C 357.291,296.922 356.791,298.255 356,299.5C 351.952,303.88 348.285,308.546 345,313.5C 338.14,320.887 330.64,327.553 322.5,333.5C 322.557,332.391 322.89,331.391 323.5,330.5C 336.204,320.13 347.537,308.463 357.5,295.5 Z"/></g>
<g><path style="opacity:1" fill="#686082" d="M 126.5,327.5 C 128.517,328.529 130.517,329.529 132.5,330.5C 132.351,331.552 132.517,332.552 133,333.5C 136.023,335.698 138.856,338.031 141.5,340.5C 139.915,341.002 139.415,342.002 140,343.5C 140.333,343.167 140.667,342.833 141,342.5C 142.167,344.333 143.333,346.167 144.5,348C 145.449,348.617 146.282,348.451 147,347.5C 147.419,351.852 148.086,352.185 149,348.5C 150.333,351.167 151.667,353.833 153,356.5C 153.333,355.833 153.667,355.167 154,354.5C 154.465,355.931 155.299,357.097 156.5,358C 154.855,360.925 152.855,361.092 150.5,358.5C 149.893,358.624 149.56,358.957 149.5,359.5C 141.865,355.682 134.531,351.349 127.5,346.5C 127.611,345.883 127.944,345.383 128.5,345C 127.09,344.632 126.09,343.799 125.5,342.5C 126.711,341.28 126.711,340.113 125.5,339C 127.831,337.2 127.831,335.2 125.5,333C 125.833,332.667 126.167,332.333 126.5,332C 124.069,330.568 124.069,329.068 126.5,327.5 Z"/></g>
<g><path style="opacity:1" fill="#596189" d="M 141.5,340.5 C 158.029,350.017 175.696,357.017 194.5,361.5C 194.5,361.833 194.5,362.167 194.5,362.5C 193.957,362.56 193.624,362.893 193.5,363.5C 195.542,367.02 198.375,368.354 202,367.5C 204.071,368.364 205.738,369.697 207,371.5C 207.333,370.833 207.667,370.167 208,369.5C 209.107,372.492 210.774,373.159 213,371.5C 214.53,372.636 215.863,373.636 217,374.5C 217.667,371.833 218.333,371.833 219,374.5C 219.333,373.833 219.667,373.167 220,372.5C 221.332,373.162 222.498,374.328 223.5,376C 220.303,376.987 217.47,376.487 215,374.5C 208.055,375.215 201.222,375.548 194.5,375.5C 178.559,372.522 163.559,367.188 149.5,359.5C 149.56,358.957 149.893,358.624 150.5,358.5C 152.855,361.092 154.855,360.925 156.5,358C 155.299,357.097 154.465,355.931 154,354.5C 153.667,355.167 153.333,355.833 153,356.5C 151.667,353.833 150.333,351.167 149,348.5C 148.086,352.185 147.419,351.852 147,347.5C 146.282,348.451 145.449,348.617 144.5,348C 143.333,346.167 142.167,344.333 141,342.5C 140.667,342.833 140.333,343.167 140,343.5C 139.415,342.002 139.915,341.002 141.5,340.5 Z"/></g>
<g><path style="opacity:1" fill="#aab1d1" d="M 194.5,362.5 C 194.5,362.167 194.5,361.833 194.5,361.5C 201.111,361.547 207.444,362.547 213.5,364.5C 207.106,364.354 200.773,363.687 194.5,362.5 Z"/></g>
<g><path style="opacity:1" fill="#8895ba" d="M 258.5,361.5 C 254.425,363.118 250.092,364.118 245.5,364.5C 244.167,364.5 242.833,364.5 241.5,364.5C 246.975,363.141 252.642,362.141 258.5,361.5 Z"/></g>
<g><path style="opacity:1" fill="#465c8c" d="M 301.5,362.5 C 267.316,378.003 231.649,382.337 194.5,375.5C 201.222,375.548 208.055,375.215 215,374.5C 217.47,376.487 220.303,376.987 223.5,376C 222.498,374.328 221.332,373.162 220,372.5C 219.667,373.167 219.333,373.833 219,374.5C 218.333,371.833 217.667,371.833 217,374.5C 215.863,373.636 214.53,372.636 213,371.5C 210.774,373.159 209.107,372.492 208,369.5C 207.667,370.167 207.333,370.833 207,371.5C 205.738,369.697 204.071,368.364 202,367.5C 198.375,368.354 195.542,367.02 193.5,363.5C 193.624,362.893 193.957,362.56 194.5,362.5C 200.773,363.687 207.106,364.354 213.5,364.5C 222.833,364.5 232.167,364.5 241.5,364.5C 242.833,364.5 244.167,364.5 245.5,364.5C 245.389,365.117 245.056,365.617 244.5,366C 245.715,368.096 246.549,367.929 247,365.5C 248.688,367.045 250.688,368.045 253,368.5C 255,365.833 257,365.833 259,368.5C 261,367.167 263,367.167 265,368.5C 266.333,365.833 267.667,365.833 269,368.5C 270.555,366.854 272.221,366.521 274,367.5C 274.333,366.833 274.667,366.167 275,365.5C 275.667,368.167 276.333,368.167 277,365.5C 277.667,368.167 278.333,368.167 279,365.5C 280.016,366.634 280.683,366.301 281,364.5C 283.665,364.703 286.498,365.37 289.5,366.5C 292.962,365.298 296.128,363.631 299,361.5C 299.902,361.743 300.735,362.077 301.5,362.5 Z"/></g>
</svg>
